<svg width="76" height="42" viewBox="0 0 76 42" fill="none" xmlns="http://www.w3.org/2000/svg">
    <g filter="url(#ka64f0qt3a)">
        <path fill-rule="evenodd" clip-rule="evenodd" d="M58.976 18.194C58.447 9.194 51.028 2 42.085 2c-5.43 0-10.688 2.663-13.946 7.008-.075-.039-.154-.066-.23-.102a9.322 9.322 0 0 0-.604-.269 9.062 9.062 0 0 0-.962-.317c-.115-.031-.229-.063-.345-.089a9.567 9.567 0 0 0-.687-.125c-.101-.015-.2-.035-.302-.046A9.096 9.096 0 0 0 24 8c-4.963 0-9 4.037-9 9 0 .127.008.252.016.377v.004C10.857 19.649 8 24.399 8 29.154 8 36.237 13.762 42 20.845 42h24.508c.104 0 .207-.006.311-.014l.062-.008.134.008c.102.008.204.014.309.014h9.803C62.604 42 68 36.604 68 29.972c0-5.489-3.827-10.412-9.024-11.778zM55.972 40h-9.803c-.059 0-.116-.005-.174-.009l-.271-.011-.198.011c-.057.004-.115.009-.173.009H20.845C14.865 40 10 35.135 10 29.154c0-4.154 2.705-8.466 6.433-10.253L17 18.63V18c0-.127.008-.256.015-.386l.009-.16-.012-.21C17.006 17.163 17 17.082 17 17c0-3.859 3.141-7 7-7a6.995 6.995 0 0 1 1.15.103c.267.044.53.102.789.177.035.01.071.017.106.027.285.087.563.197.835.321.071.032.14.067.21.101A6.995 6.995 0 0 1 31 17a1 1 0 1 0 2 0 8.98 8.98 0 0 0-3.2-6.871C32.667 6.379 37.388 4 42.085 4c7.745 0 14.177 6.135 14.848 13.888-1.022-.072-2.552-.109-4.083.124a1 1 0 0 0 .3 1.977c2.227-.337 4.548-.021 4.684-.002C62.49 20.872 66 25.161 66 29.972 66 35.501 61.501 40 55.972 40z" fill="#fff"/>
    </g>
    <defs>
        <filter id="ka64f0qt3a" x="0" y="-2" width="76" height="56" filterUnits="userSpaceOnUse" color-interpolation-filters="sRGB">
            <feFlood flood-opacity="0" result="BackgroundImageFix"/>
            <feColorMatrix in="SourceAlpha" values="0 0 0 0 0 0 0 0 0 0 0 0 0 0 0 0 0 0 127 0" result="hardAlpha"/>
            <feOffset dy="4"/>
            <feGaussianBlur stdDeviation="4"/>
            <feColorMatrix values="0 0 0 0 0 0 0 0 0 0 0 0 0 0 0 0 0 0 0.3 0"/>
            <feBlend in2="BackgroundImageFix" result="effect1_dropShadow_0_2568"/>
            <feBlend in="SourceGraphic" in2="effect1_dropShadow_0_2568" result="shape"/>
        </filter>
    </defs>
</svg>
